<svg width="489.81622314453125px" height="122.021240234375px" xmlns="http://www.w3.org/2000/svg" viewBox="5.091888427734375 13.9893798828125 489.81622314453125 122.021240234375" style="background: rgba(0, 0, 0, 0);" preserveAspectRatio="xMidYMid"><defs><filter id="editing-jagged" x="-100%" y="-100%" width="300%" height="300%"><feTurbulence result="turb" baseFrequency="0.1" numOctaves="1" seed="1"></feTurbulence><feDisplacementMap in="SourceGraphic" in2="turb" scale="10"></feDisplacementMap></filter></defs><g filter="url(#editing-jagged)"><g transform="translate(78.40281128883362, 104.1121883392334)"><path class="erald" d="M28.42-9.86L28.42-9.86L28.42-9.86Q29.63-8.32 29.63-5.82L29.63-5.82L29.63-5.82Q29.63-2.37 27.07-0.54L27.07-0.54L27.07-0.54Q24.51 1.28 20.48 1.28L20.48 1.28L20.48 1.28Q18.18 1.28 14.66 0.77L14.66 0.77L14.66 0.77Q7.74-0.32 5.63-0.32L5.63-0.32L5.63-0.32Q3.52-0.32 2.69-0.22L2.69-0.22L2.69-0.22Q1.86-0.13 0.51 0L0.51 0L8.38-42.24L35.97-42.24L35.97-42.24Q35.97-38.34 34.08-36.29L34.08-36.29L34.08-36.29Q32.19-34.24 28.48-34.24L28.48-34.24L28.48-34.24Q24.77-34.24 20.99-35.97L20.99-35.97L19.01-24.77L30.40-24.77L30.40-24.77Q30.40-21.38 28.74-19.49L28.74-19.49L28.74-19.49Q27.07-17.60 24.29-17.60L24.29-17.60L24.29-17.60Q21.50-17.60 19.78-18.24L19.78-18.24L19.78-18.24Q18.05-18.88 17.86-19.07L17.86-19.07L15.55-6.98L15.55-6.98Q17.09-6.78 19.97-6.78L19.97-6.78L19.97-6.78Q24.90-6.78 28.42-9.86ZM55.55-17.98L55.55-17.98L55.55-17.98Q57.86-22.08 57.86-26.24L57.86-26.24L57.86-26.24Q57.86-28.99 55.87-28.99L55.87-28.99L55.87-28.99Q54.34-28.99 52.74-26.37L52.74-26.37L52.74-26.37Q51.07-23.74 50.56-20.35L50.56-20.35L47.23 0L33.98 1.28L40.51-32.64L51.07-33.92L49.92-27.46L49.92-27.46Q53.06-33.92 60.10-33.92L60.10-33.92L60.10-33.92Q63.81-33.92 65.82-32L65.82-32L65.82-32Q67.84-30.08 67.84-26.14L67.84-26.14L67.84-26.14Q67.84-22.21 65.25-19.71L65.25-19.71L65.25-19.71Q62.66-17.22 58.24-17.22L58.24-17.22L58.24-17.22Q56.32-17.22 55.55-17.98ZM71.65-1.92L71.65-1.92L71.65-1.92Q70.14-3.58 69.47-6.21L69.47-6.21L69.47-6.21Q68.80-8.83 68.80-13.12L68.80-13.12L68.80-13.12Q68.80-17.41 70.27-21.31L70.27-21.31L70.27-21.31Q71.74-25.22 74.43-28.03L74.43-28.03L74.43-28.03Q79.94-33.92 89.02-33.92L89.02-33.92L89.02-33.92Q92.29-33.92 94.66-32.83L94.66-32.83L105.60-33.92L100.86-8.96L100.86-8.96Q100.67-8.19 100.67-6.78L100.67-6.78L100.67-6.78Q100.67-5.38 101.54-4.48L101.54-4.48L101.54-4.48Q102.40-3.58 103.68-3.46L103.68-3.46L103.68-3.46Q103.04-1.28 100.70 0L100.70 0L100.70 0Q98.37 1.28 95.74 1.28L95.74 1.28L95.74 1.28Q93.12 1.28 91.36 0.29L91.36 0.29L91.36 0.29Q89.60-0.70 89.09-2.37L89.09-2.37L89.09-2.37Q88.06-0.77 85.89 0.26L85.89 0.26L85.89 0.26Q83.71 1.28 80.80 1.28L80.80 1.28L80.80 1.28Q77.89 1.28 75.52 0.51L75.52 0.51L75.52 0.51Q73.15-0.26 71.65-1.92ZM85.15-27.90L85.15-27.90L85.15-27.90Q84.42-26.75 83.78-24.80L83.78-24.80L83.78-24.80Q83.14-22.85 82.08-17.63L82.08-17.63L82.08-17.63Q81.02-12.42 81.02-8.70L81.02-8.70L81.02-8.70Q81.02-4.99 81.60-3.90L81.60-3.90L81.60-3.90Q82.18-2.82 83.20-2.82L83.20-2.82L83.20-2.82Q85.25-2.82 86.75-4.77L86.75-4.77L86.75-4.77Q88.26-6.72 88.83-10.18L88.83-10.18L92.22-28.93L92.22-28.93Q90.88-30.08 89.31-30.08L89.31-30.08L89.31-30.08Q87.74-30.08 86.82-29.57L86.82-29.57L86.82-29.57Q85.89-29.06 85.15-27.90ZM124.35-3.52L124.35-3.52L124.35-3.52Q122.37 1.28 116.03 1.28L116.03 1.28L116.03 1.28Q112.83 1.28 110.78-0.96L110.78-0.96L110.78-0.96Q109.12-2.82 109.12-4.93L109.12-4.93L109.12-4.93Q109.12-9.73 111.36-20.22L111.36-20.22L116.03-44.80L129.02-46.08L122.82-13.70L122.82-13.70Q121.73-8.96 121.73-7.30L121.73-7.30L121.73-7.30Q121.73-3.65 124.35-3.52ZM149.95-33.92L149.95-33.92L149.95-33.92Q152.26-33.92 154.05-33.41L154.05-33.41L154.05-33.41Q154.11-33.66 154.24-34.37L154.24-34.37L154.56-36.35L154.56-36.35Q154.82-37.63 155.20-39.74L155.20-39.74L156.22-44.80L168.96-46.08L161.86-8.96L161.86-8.96Q161.79-8.58 161.79-7.94L161.79-7.94L161.79-6.91L161.79-6.91Q161.79-5.50 162.50-4.45L162.50-4.45L162.50-4.45Q163.20-3.39 164.35-3.39L164.35-3.39L164.35-3.39Q163.07-0.38 159.17 0.90L159.17 0.90L159.17 0.90Q157.82 1.28 155.94 1.28L155.94 1.28L155.94 1.28Q154.05 1.28 152.32 0.29L152.32 0.29L152.32 0.29Q150.59-0.70 150.08-2.37L150.08-2.37L150.08-2.37Q149.06-0.70 147.01 0.29L147.01 0.29L147.01 0.29Q144.96 1.28 141.98 1.28L141.98 1.28L141.98 1.28Q139.01 1.28 136.54 0.51L136.54 0.51L136.54 0.51Q134.08-0.26 132.54-1.92L132.54-1.92L132.54-1.92Q129.73-5.18 129.73-12.61L129.73-12.61L129.73-12.61Q129.73-22.21 135.36-28.03L135.36-28.03L135.36-28.03Q140.99-33.92 149.95-33.92ZM149.50-30.08L149.50-30.08L149.50-30.08Q147.14-30.08 145.86-27.52L145.86-27.52L145.86-27.52Q144.58-24.96 143.26-18.62L143.26-18.62L143.26-18.62Q141.95-12.29 141.95-6.59L141.95-6.59L141.95-6.59Q141.95-2.69 144.26-2.69L144.26-2.69L144.26-2.69Q146.30-2.69 147.74-4.74L147.74-4.74L147.74-4.74Q149.18-6.78 149.76-10.18L149.76-10.18L153.22-28.93L153.22-28.93Q151.87-30.08 149.50-30.08ZM216.38-13.25L216.38-13.25L216.38-13.25Q218.05-12.03 218.05-9.44L218.05-9.44L218.05-9.44Q218.05-6.85 216.93-5.02L216.93-5.02L216.93-5.02Q215.81-3.20 213.63-1.79L213.63-1.79L213.63-1.79Q208.96 1.22 200.80 1.22L200.80 1.22L200.80 1.22Q192.64 1.22 188.19-3.04L188.19-3.04L188.19-3.04Q183.74-7.30 183.74-14.85L183.74-14.85L183.74-14.85Q183.74-25.54 189.31-33.66L189.31-33.66L189.31-33.66Q193.54-39.68 201.09-42.24L201.09-42.24L201.09-42.24Q204.99-43.52 208.83-43.52L208.83-43.52L208.83-43.52Q212.67-43.52 215.04-43.01L215.04-43.01L215.04-43.01Q217.41-42.50 219.20-41.47L219.20-41.47L219.20-41.47Q223.10-39.23 223.10-35.65L223.10-35.65L223.10-35.65Q223.10-32.38 220.03-29.95L220.03-29.95L220.03-29.95Q217.22-27.78 214.91-27.78L214.91-27.78L214.91-27.78Q212.61-27.78 211.65-28.10L211.65-28.10L211.65-28.10Q211.90-30.40 211.90-31.90L211.90-31.90L211.90-31.90Q211.90-33.41 211.84-34.50L211.84-34.50L211.84-34.50Q211.78-35.58 211.46-36.61L211.46-36.61L211.46-36.61Q210.82-38.98 208.86-38.98L208.86-38.98L208.86-38.98Q206.91-38.98 204.96-37.15L204.96-37.15L204.96-37.15Q203.01-35.33 201.34-32.26L201.34-32.26L201.34-32.26Q197.57-25.28 197.57-17.02L197.57-17.02L197.57-17.02Q197.57-13.06 199.81-10.78L199.81-10.78L199.81-10.78Q202.05-8.51 206.85-8.51L206.85-8.51L206.85-8.51Q210.43-8.51 213.82-10.88L213.82-10.88L213.82-10.88Q215.30-11.90 216.38-13.25ZM226.14-1.92L226.14-1.92L226.14-1.92Q224.64-3.58 223.97-6.21L223.97-6.21L223.97-6.21Q223.30-8.83 223.30-13.12L223.30-13.12L223.30-13.12Q223.30-17.41 224.77-21.31L224.77-21.31L224.77-21.31Q226.24-25.22 228.93-28.03L228.93-28.03L228.93-28.03Q234.43-33.92 243.52-33.92L243.52-33.92L243.52-33.92Q246.78-33.92 249.15-32.83L249.15-32.83L260.10-33.92L255.36-8.96L255.36-8.96Q255.17-8.19 255.17-6.78L255.17-6.78L255.17-6.78Q255.17-5.38 256.03-4.48L256.03-4.48L256.03-4.48Q256.90-3.58 258.18-3.46L258.18-3.46L258.18-3.46Q257.54-1.28 255.20 0L255.20 0L255.20 0Q252.86 1.28 250.24 1.28L250.24 1.28L250.24 1.28Q247.62 1.28 245.86 0.29L245.86 0.29L245.86 0.29Q244.10-0.70 243.58-2.37L243.58-2.37L243.58-2.37Q242.56-0.77 240.38 0.26L240.38 0.26L240.38 0.26Q238.21 1.28 235.30 1.28L235.30 1.28L235.30 1.28Q232.38 1.28 230.02 0.51L230.02 0.51L230.02 0.51Q227.65-0.26 226.14-1.92ZM239.65-27.90L239.65-27.90L239.65-27.90Q238.91-26.75 238.27-24.80L238.27-24.80L238.27-24.80Q237.63-22.85 236.58-17.63L236.58-17.63L236.58-17.63Q235.52-12.42 235.52-8.70L235.52-8.70L235.52-8.70Q235.52-4.99 236.10-3.90L236.10-3.90L236.10-3.90Q236.67-2.82 237.70-2.82L237.70-2.82L237.70-2.82Q239.74-2.82 241.25-4.77L241.25-4.77L241.25-4.77Q242.75-6.72 243.33-10.18L243.33-10.18L246.72-28.93L246.72-28.93Q245.38-30.08 243.81-30.08L243.81-30.08L243.81-30.08Q242.24-30.08 241.31-29.57L241.31-29.57L241.31-29.57Q240.38-29.06 239.65-27.90ZM278.85-3.52L278.85-3.52L278.85-3.52Q276.86 1.28 270.53 1.28L270.53 1.28L270.53 1.28Q267.33 1.28 265.28-0.96L265.28-0.96L265.28-0.96Q263.62-2.82 263.62-4.93L263.62-4.93L263.62-4.93Q263.62-9.73 265.86-20.22L265.86-20.22L270.53-44.80L283.52-46.08L277.31-13.70L277.31-13.70Q276.22-8.96 276.22-7.30L276.22-7.30L276.22-7.30Q276.22-3.65 278.85-3.52ZM287.07-1.92L287.07-1.92L287.07-1.92Q285.57-3.58 284.90-6.21L284.90-6.21L284.90-6.21Q284.22-8.83 284.22-13.12L284.22-13.12L284.22-13.12Q284.22-17.41 285.70-21.31L285.70-21.31L285.70-21.31Q287.17-25.22 289.86-28.03L289.86-28.03L289.86-28.03Q295.36-33.92 304.45-33.92L304.45-33.92L304.45-33.92Q307.71-33.92 310.08-32.83L310.08-32.83L321.02-33.92L316.29-8.96L316.29-8.96Q316.10-8.19 316.10-6.78L316.10-6.78L316.10-6.78Q316.10-5.38 316.96-4.48L316.96-4.48L316.96-4.48Q317.82-3.58 319.10-3.46L319.10-3.46L319.10-3.46Q318.46-1.28 316.13 0L316.13 0L316.13 0Q313.79 1.28 311.17 1.28L311.17 1.28L311.17 1.28Q308.54 1.28 306.78 0.29L306.78 0.29L306.78 0.29Q305.02-0.70 304.51-2.37L304.51-2.37L304.51-2.37Q303.49-0.77 301.31 0.26L301.31 0.26L301.31 0.26Q299.14 1.28 296.22 1.28L296.22 1.28L296.22 1.28Q293.31 1.28 290.94 0.51L290.94 0.51L290.94 0.51Q288.58-0.26 287.07-1.92ZM300.58-27.90L300.58-27.90L300.58-27.90Q299.84-26.75 299.20-24.80L299.20-24.80L299.20-24.80Q298.56-22.85 297.50-17.63L297.50-17.63L297.50-17.63Q296.45-12.42 296.45-8.70L296.45-8.70L296.45-8.70Q296.45-4.99 297.02-3.90L297.02-3.90L297.02-3.90Q297.60-2.82 298.62-2.82L298.62-2.82L298.62-2.82Q300.67-2.82 302.18-4.77L302.18-4.77L302.18-4.77Q303.68-6.72 304.26-10.18L304.26-10.18L307.65-28.93L307.65-28.93Q306.30-30.08 304.74-30.08L304.74-30.08L304.74-30.08Q303.17-30.08 302.24-29.57L302.24-29.57L302.24-29.57Q301.31-29.06 300.58-27.90ZM315.58 7.62L315.58 7.62L315.58 7.62Q318.91 7.36 321.34 3.20L321.34 3.20L321.34 3.20Q323.20 0 324.42-5.89L324.42-5.89L329.60-32.64L342.46-33.92L337.02-5.89L337.02-5.89Q334.91 4.80 331.65 8.32L331.65 8.32L331.65 8.32Q329.92 10.24 327.68 10.88L327.68 10.88L327.68 10.88Q325.44 11.52 322.88 11.52L322.88 11.52L322.88 11.52Q317.50 11.52 315.58 7.62ZM330.62-41.54L330.62-41.54L330.62-41.54Q330.62-44.03 332.70-45.38L332.70-45.38L332.70-45.38Q334.78-46.72 337.79-46.72L337.79-46.72L337.79-46.72Q340.80-46.72 342.62-45.38L342.62-45.38L342.62-45.38Q344.45-44.03 344.45-41.54L344.45-41.54L344.45-41.54Q344.45-39.04 342.43-37.76L342.43-37.76L342.43-37.76Q340.42-36.48 337.41-36.48L337.41-36.48L337.41-36.48Q334.40-36.48 332.51-37.76L332.51-37.76L332.51-37.76Q330.62-39.04 330.62-41.54Z" fill="#444"></path></g></g><style>text {
  font-size: 64px;
  font-family: Arial Black;
  dominant-baseline: central;
  text-anchor: middle;
}</style></svg>